<?xml version="1.0"?>
<svg width="30" height="30" xmlns="http://www.w3.org/2000/svg" xmlns:svg="http://www.w3.org/2000/svg">
 <defs>
  <clipPath id="clip0_3_100">
   <rect fill="white" height="30" id="svg_1" width="30"/>
  </clipPath>
 </defs>
 <g class="layer">
  <title>Layer 1</title>
  <g clip-path="url(#clip0_3_100)" id="svg_2">
   <path d="m15.03,29.88c-8.23,0 -14.91,-6.66 -14.91,-14.87c0,-8.21 6.68,-14.87 14.91,-14.87c8.23,0 14.91,6.66 14.91,14.87c0,8.21 -6.68,14.87 -14.91,14.87zm-9.95,-8.29c0.98,1.46 2.28,2.69 3.79,3.59c1.5,0.9 3.2,1.46 4.96,1.64c1.75,0.17 3.52,-0.05 5.18,-0.64c1.67,-0.59 3.17,-1.55 4.42,-2.78c1.24,-1.25 2.19,-2.75 2.79,-4.41c0.6,-1.65 0.81,-3.42 0.64,-5.18c-0.18,-1.75 -0.74,-3.44 -1.65,-4.95c-0.91,-1.5 -2.13,-2.8 -3.6,-3.77c0.64,2.28 0.67,4.7 0.06,7.01c-0.6,2.3 -1.81,4.39 -3.49,6.07c-1.68,1.68 -3.78,2.88 -6.08,3.49c-2.3,0.61 -4.73,0.58 -7.02,-0.06z" fill="#1B1B1B" id="svg_3"/>
  </g>
 </g>
</svg>