<svg xmlns="http://www.w3.org/2000/svg"  viewBox="0 0 24 24" width="24px" height="24px">    <path d="M 18.197266 2.0117188 C 17.939828 2.0295156 17.676906 2.0702187 17.410156 2.1367188 C 15.649156 2.5757188 14.275063 4.090625 14.039062 5.890625 C 13.950908 6.5618718 14.017248 7.2075049 14.197266 7.8027344 L 13.207031 8.7929688 C 12.817031 9.1829687 12.817031 9.8170313 13.207031 10.207031 L 14.792969 11.792969 C 15.182969 12.183969 15.816031 12.183969 16.207031 11.792969 L 17.199219 10.800781 C 17.794008 10.980423 18.436776 11.049014 19.107422 10.960938 C 20.907422 10.724937 22.424281 9.3508438 22.863281 7.5898438 C 23.129281 6.5238438 22.98575 5.5212969 22.59375 4.6542969 L 20.75 6.5 C 20.129 7.121 19.121 7.121 18.5 6.5 C 17.879 5.879 17.879 4.871 18.5 4.25 L 20.345703 2.4042969 C 19.695453 2.1110469 18.969578 1.9583281 18.197266 2.0117188 z M 8.8671875 7 C 8.0721875 7 7.3090937 7.3159062 6.7460938 7.8789062 L 1.8789062 12.746094 C 0.70790625 13.917094 0.70790625 15.817281 1.8789062 16.988281 L 6.2988281 21.412109 C 6.9078281 22.022109 7.838375 22.173109 8.609375 21.787109 L 14.025391 19.074219 L 15.421875 17.742188 C 16.232875 16.967187 16.246125 15.675812 15.453125 14.882812 L 10.896484 10.324219 C 10.108484 9.5362187 10.116062 8.2565156 10.914062 7.4785156 L 11.404297 7 L 8.8671875 7 z"/></svg>